<svg width="600" height="400" viewBox="0 0 600 400" xmlns="http://www.w3.org/2000/svg">
  <defs>
    <linearGradient id="buildingGradient" x1="0%" y1="0%" x2="0%" y2="100%">
      <stop offset="0%" style="stop-color:#E5E7EB;stop-opacity:1" />
      <stop offset="100%" style="stop-color:#9CA3AF;stop-opacity:1" />
    </linearGradient>
  </defs>
  
  <!-- Sky -->
  <rect width="600" height="400" fill="#3B82F6"/>
  
  <!-- Building -->
  <rect x="150" y="100" width="300" height="300" fill="url(#buildingGradient)"/>
  
  <!-- Windows -->
  <rect x="170" y="120" width="25" height="30" fill="#1E40AF"/>
  <rect x="205" y="120" width="25" height="30" fill="#2563EB"/>
  <rect x="240" y="120" width="25" height="30" fill="#1E40AF"/>
  <rect x="275" y="120" width="25" height="30" fill="#2563EB"/>
  <rect x="310" y="120" width="25" height="30" fill="#1E40AF"/>
  <rect x="345" y="120" width="25" height="30" fill="#2563EB"/>
  <rect x="380" y="120" width="25" height="30" fill="#1E40AF"/>
  
  <rect x="170" y="170" width="25" height="30" fill="#2563EB"/>
  <rect x="205" y="170" width="25" height="30" fill="#1E40AF"/>
  <rect x="240" y="170" width="25" height="30" fill="#2563EB"/>
  <rect x="275" y="170" width="25" height="30" fill="#1E40AF"/>
  <rect x="310" y="170" width="25" height="30" fill="#2563EB"/>
  <rect x="345" y="170" width="25" height="30" fill="#1E40AF"/>
  <rect x="380" y="170" width="25" height="30" fill="#2563EB"/>
  
  <rect x="170" y="220" width="25" height="30" fill="#1E40AF"/>
  <rect x="205" y="220" width="25" height="30" fill="#2563EB"/>
  <rect x="240" y="220" width="25" height="30" fill="#1E40AF"/>
  <rect x="275" y="220" width="25" height="30" fill="#2563EB"/>
  <rect x="310" y="220" width="25" height="30" fill="#1E40AF"/>
  <rect x="345" y="220" width="25" height="30" fill="#2563EB"/>
  <rect x="380" y="220" width="25" height="30" fill="#1E40AF"/>
  
  <!-- Entrance -->
  <rect x="270" y="320" width="60" height="80" fill="#374151"/>
  <rect x="285" y="340" width="30" height="60" fill="#1F2937"/>
  
  <!-- Logo area -->
  <rect x="200" y="280" width="200" height="30" fill="#1E40AF"/>
  <text x="300" y="300" text-anchor="middle" fill="white" font-family="Arial" font-size="16" font-weight="bold">R&M GROUPS</text>
</svg>