<svg width="400" height="300" viewBox="0 0 400 300" xmlns="http://www.w3.org/2000/svg">
  <defs>
    <linearGradient id="skyGrad" x1="0%" y1="0%" x2="0%" y2="100%">
      <stop offset="0%" style="stop-color:#3B82F6;stop-opacity:1" />
      <stop offset="100%" style="stop-color:#1E40AF;stop-opacity:1" />
    </linearGradient>
  </defs>
  
  <!-- Sky -->
  <rect width="400" height="300" fill="url(#skyGrad)"/>
  
  <!-- Clouds -->
  <ellipse cx="80" cy="60" rx="30" ry="15" fill="white" opacity="0.8"/>
  <ellipse cx="95" cy="55" rx="35" ry="18" fill="white" opacity="0.8"/>
  <ellipse cx="320" cy="80" rx="25" ry="12" fill="white" opacity="0.7"/>
  
  <!-- Large airplane -->
  <g transform="translate(200,150)">
    <ellipse cx="0" cy="0" rx="100" ry="20" fill="#E5E7EB"/>
    <ellipse cx="-30" cy="-8" rx="35" ry="12" fill="#D1D5DB"/>
    <ellipse cx="40" cy="-5" rx="20" ry="8" fill="#9CA3AF"/>
    <ellipse cx="45" cy="5" rx="20" ry="8" fill="#9CA3AF"/>
    <!-- Windows -->
    <circle cx="-60" cy="-3" r="3" fill="#1E40AF"/>
    <circle cx="-45" cy="-3" r="3" fill="#1E40AF"/>
    <circle cx="-30" cy="-3" r="3" fill="#1E40AF"/>
    <circle cx="-15" cy="-3" r="3" fill="#1E40AF"/>
    <circle cx="0" cy="-3" r="3" fill="#1E40AF"/>
    <circle cx="15" cy="-3" r="3" fill="#1E40AF"/>
  </g>
  
  <!-- Ticket -->
  <g transform="translate(50,220)">
    <rect x="0" y="0" width="120" height="60" rx="5" fill="white"/>
    <rect x="5" y="5" width="110" height="8" fill="#3B82F6"/>
    <text x="60" y="25" text-anchor="middle" fill="#374151" font-family="Arial" font-size="8">BOARDING PASS</text>
    <text x="15" y="40" fill="#6B7280" font-family="Arial" font-size="6">LOS → LHR</text>
    <text x="85" y="40" fill="#6B7280" font-family="Arial" font-size="6">GATE A12</text>
    <text x="15" y="52" fill="#6B7280" font-family="Arial" font-size="6">SEAT 12A</text>
    <text x="85" y="52" fill="#6B7280" font-family="Arial" font-size="6">14:30</text>
  </g>
</svg>